# Made in Blockbench 5.1.6
mtllib flag_floor_c.mtl

o cube
v 0.0625 -0.5 -0.0625
v -0.0625 -0.5 -0.0625
v -0.0625 6 -0.0625
v 0.0625 6 -0.0625
v 0.0625 -0.5 0.0625
v 0.0625 6 0.0625
v -0.0625 -0.5 0.0625
v -0.0625 6 0.0625
vt 0.1328125 0.1875
vt 0.1484375 0.1875
vt 0.1484375 1
vt 0.1328125 1
vt 0.15625 0.1875
vt 0.171875 0.1875
vt 0.171875 1
vt 0.15625 1
vt 0.1796875 0.1875
vt 0.1953125 0.1875
vt 0.1953125 1
vt 0.1796875 1
vt 0.203125 0.1875
vt 0.21875 0.1875
vt 0.21875 1
vt 0.203125 1
vt 0.265625 0.8125
vt 0.25 0.8125
vt 0.25 0.796875
vt 0.265625 0.796875
vt 0.265625 0.7734375
vt 0.25 0.7734375
vt 0.25 0.7890625
vt 0.265625 0.7890625
vn 0 0 -1
vn 1 0 0
vn 0 0 1
vn -1 0 0
vn 0 1 0
vn 0 -1 0
usemtl none
f 1/1/1 2/2/1 3/3/1 4/4/1
f 5/5/2 1/6/2 4/7/2 6/8/2
f 7/9/3 5/10/3 6/11/3 8/12/3
f 2/13/4 7/14/4 8/15/4 3/16/4
f 8/17/5 6/18/5 4/19/5 3/20/5
f 2/21/6 1/22/6 5/23/6 7/24/6
o cube
v -0.06249999999999989 5.375 -1.1875
v -0.06250000000000011 5.375 -0.06249999999999989
v -0.06250000000000011 5.5 -0.06249999999999989
v -0.06249999999999989 5.5 -1.1875
v 0.06250000000000011 5.375 -1.1875
v 0.06250000000000011 5.5 -1.1875
v 0.06249999999999989 5.375 -0.06249999999999989
v 0.06249999999999989 5.5 -0.06249999999999989
vt 0.25 0.9375
vt 0.390625 0.9375
vt 0.390625 0.953125
vt 0.25 0.953125
vt 0.25 0.84375
vt 0.265625 0.84375
vt 0.265625 0.859375
vt 0.25 0.859375
vt 0.25 0.9140625
vt 0.390625 0.9140625
vt 0.390625 0.9296875
vt 0.25 0.9296875
vt 0.25 0.8203125
vt 0.265625 0.8203125
vt 0.265625 0.8359375
vt 0.25 0.8359375
vt 0.25 0.890625
vt 0.390625 0.890625
vt 0.390625 0.90625
vt 0.25 0.90625
vt 0.25 0.8671875
vt 0.390625 0.8671875
vt 0.390625 0.8828125
vt 0.25 0.8828125
vn -1 0 -1.9737298215558337e-16
vn 0 0 -1
vn 1 0 1.9737298215558337e-16
vn 0 0 1
vn 0 1 0
vn 0 -1 0
usemtl none
f 9/25/7 10/26/7 11/27/7 12/28/7
f 13/29/8 9/30/8 12/31/8 14/32/8
f 15/33/9 13/34/9 14/35/9 16/36/9
f 10/37/10 15/38/10 16/39/10 11/40/10
f 16/41/11 14/42/11 12/43/11 11/44/11
f 10/45/12 9/46/12 13/47/12 15/48/12
o plane
v 3.3306690738754696e-16 2.625 -1.1249999999999996
v -2.7755575615628914e-16 5.375 -1.125
v -3.3306690738754696e-16 5.375 -0.1250000000000001
v 2.7755575615628914e-16 2.625 -0.12499999999999967
vt 0.125 0.65625
vt 0.125 1
vt 0 1
vt 0 0.65625
vn 1 2.220446049250313e-16 5.551115123125783e-17
usemtl none
f 17/49/13 18/50/13 19/51/13 20/52/13
o cube
v 0.06250000000000003 5.381981138589274 -1.0393644740751975
v -0.06249999999999998 5.381981138589274 -1.0393644740751975
v -0.06249999999999999 5.497466080153185 -1.0871999031208337
v 0.06250000000000001 5.497466080153185 -1.0871999031208337
v 0.0625 5.836417714522818 0.05774247078195542
v 0.06249999999999999 5.9519026560867285 0.009907041736319185
v -0.0625 5.836417714522818 0.05774247078195542
v -0.06250000000000001 5.9519026560867285 0.009907041736319185
vt 0.25 0.75
vt 0.265625 0.75
vt 0.265625 0.765625
vt 0.25 0.765625
vt 0.2265625 0.984375
vt 0.375 0.984375
vt 0.375 1
vt 0.2265625 1
vt 0.25 0.7265625
vt 0.265625 0.7265625
vt 0.265625 0.7421875
vt 0.25 0.7421875
vt 0.2265625 0.9609375
vt 0.375 0.9609375
vt 0.375 0.9765625
vt 0.2265625 0.9765625
vt 0.2421875 0.953125
vt 0.2265625 0.953125
vt 0.2265625 0.8046875
vt 0.2421875 0.8046875
vt 0.2421875 0.6484375
vt 0.2265625 0.6484375
vt 0.2265625 0.796875
vt 0.2421875 0.796875
vn 0 -0.3826834323650899 -0.9238795325112867
vn 1 1.1151573727117057e-16 -2.0892452007557886e-17
vn 0 0.3826834323650901 0.9238795325112866
vn -1 -1.092796111777269e-16 2.6290937949526087e-17
vn 0 0.9238795325112868 -0.3826834323650896
vn 0 -0.9238795325112868 0.3826834323650896
usemtl none
f 21/53/14 22/54/14 23/55/14 24/56/14
f 25/57/15 21/58/15 24/59/15 26/60/15
f 27/61/16 25/62/16 26/63/16 28/64/16
f 22/65/17 27/66/17 28/67/17 23/68/17
f 28/69/18 26/70/18 24/71/18 23/72/18
f 22/73/19 21/74/19 25/75/19 27/76/19
o cube
v 1.187498049252567 5.375000430978713 -0.062499999999999375
v 0.06249804925264072 5.375000022682755 -0.0625000000000001
v 0.06249800388642316 5.500000022682746 -0.0625000000000001
v 1.1874980038863494 5.500000430978704 -0.062499999999999375
v 1.1874980492525669 5.375000430978713 0.06250000000000065
v 1.1874980038863494 5.500000430978704 0.06250000000000065
v 0.062498049252640665 5.375000022682755 0.06249999999999993
v 0.062498003886423105 5.500000022682746 0.06249999999999993
vt 0.25 0.9375
vt 0.390625 0.9375
vt 0.390625 0.953125
vt 0.25 0.953125
vt 0.25 0.84375
vt 0.265625 0.84375
vt 0.265625 0.859375
vt 0.25 0.859375
vt 0.25 0.9140625
vt 0.390625 0.9140625
vt 0.390625 0.9296875
vt 0.25 0.9296875
vt 0.25 0.8203125
vt 0.265625 0.8203125
vt 0.265625 0.8359375
vt 0.25 0.8359375
vt 0.25 0.890625
vt 0.390625 0.890625
vt 0.390625 0.90625
vt 0.25 0.90625
vt 0.25 0.8671875
vt 0.390625 0.8671875
vt 0.390625 0.8828125
vt 0.25 0.8828125
vn 6.414621920056036e-16 2.3280570687413076e-22 -1
vn 0.9999999999999342 3.629297404827902e-7 4.440892098500525e-16
vn -6.414621920056036e-16 -2.3280570687413076e-22 1
vn -0.9999999999999342 -3.629297404827902e-7 -4.440892098500525e-16
vn -3.629297404827901e-7 0.9999999999999342 -1.0823362247870022e-22
vn 3.629297404827901e-7 -0.9999999999999342 1.0823362247870022e-22
usemtl none
f 29/77/20 30/78/20 31/79/20 32/80/20
f 33/81/21 29/82/21 32/83/21 34/84/21
f 35/85/22 33/86/22 34/87/22 36/88/22
f 30/89/23 35/90/23 36/91/23 31/92/23
f 36/93/24 34/94/24 32/95/24 31/96/24
f 30/97/25 29/98/25 33/99/25 35/100/25
o plane
v 1.1249990473093572 2.625000408295785 8.326672684688673e-16
v 1.1249980492525713 5.375000408295604 2.2204460492503126e-16
v 0.12499804925263681 5.375000045365864 -2.775557561562892e-16
v 0.1249990473094227 2.6250000453660447 3.3306690738754686e-16
vt 0.125 0.65625
vt 0.125 1
vt 0 1
vt 0 0.65625
vn -4.9960044166787825e-16 2.2204442360518735e-16 1
usemtl none
f 37/101/26 38/102/26 39/103/26 40/104/26
o cube
v 1.0393625207941113 5.381981515805198 0.0625000000000005
v 1.0393625207941115 5.381981515805198 -0.06249999999999953
v 1.0871979079268246 5.497466474730002 -0.062499999999999514
v 1.0871979079268246 5.497466474730002 0.06250000000000051
v -0.05774458899151814 5.8364176935659735 0.062499999999999986
v -0.009909201858804914 5.9519026524907765 0.06249999999999999
v -0.05774458899151808 5.8364176935659735 -0.06250000000000004
v -0.009909201858804858 5.9519026524907765 -0.06250000000000003
vt 0.25 0.75
vt 0.265625 0.75
vt 0.265625 0.765625
vt 0.25 0.765625
vt 0.2265625 0.984375
vt 0.375 0.984375
vt 0.375 1
vt 0.2265625 1
vt 0.25 0.7265625
vt 0.265625 0.7265625
vt 0.265625 0.7421875
vt 0.25 0.7421875
vt 0.2265625 0.9609375
vt 0.375 0.9609375
vt 0.375 0.9765625
vt 0.2265625 0.9765625
vt 0.2421875 0.953125
vt 0.2265625 0.953125
vt 0.2265625 0.8046875
vt 0.2421875 0.8046875
vt 0.2421875 0.6484375
vt 0.2265625 0.6484375
vt 0.2265625 0.796875
vt 0.2421875 0.796875
vn 0.9238796713984246 -0.38268309706170583 4.102849730087874e-16
vn -4.231967983148543e-16 1.1151558368047376e-16 1
vn -0.9238796713984245 0.38268309706170606 -4.1028497300878735e-16
vn 4.1779831156132984e-16 -1.0927945954630133e-16 -1
vn 0.3826830970617054 0.9238796713984248 1.699454831068901e-16
vn -0.3826830970617054 -0.9238796713984248 -1.699454831068901e-16
usemtl none
f 41/105/27 42/106/27 43/107/27 44/108/27
f 45/109/28 41/110/28 44/111/28 46/112/28
f 47/113/29 45/114/29 46/115/29 48/116/29
f 42/117/30 47/118/30 48/119/30 43/120/30
f 48/121/31 46/122/31 44/123/31 43/124/31
f 42/125/32 41/126/32 45/127/32 47/128/32