# Made in Blockbench 5.1.5
mtllib flag_floor.mtl

o cube
v 0.0625 6 0.0625
v 0.0625 6 -0.0625
v 0.0625 -0.5 0.0625
v 0.0625 -0.5 -0.0625
v -0.0625 6 -0.0625
v -0.0625 6 0.0625
v -0.0625 -0.5 -0.0625
v -0.0625 -0.5 0.0625
vt 0.1328125 1
vt 0.1484375 1
vt 0.1484375 0.1875
vt 0.1328125 0.1875
vt 0.15625 1
vt 0.171875 1
vt 0.171875 0.1875
vt 0.15625 0.1875
vt 0.1796875 1
vt 0.1953125 1
vt 0.1953125 0.1875
vt 0.1796875 0.1875
vt 0.203125 1
vt 0.21875 1
vt 0.21875 0.1875
vt 0.203125 0.1875
vt 0.265625 0.796875
vt 0.25 0.796875
vt 0.25 0.8125
vt 0.265625 0.8125
vt 0.265625 0.7890625
vt 0.25 0.7890625
vt 0.25 0.7734375
vt 0.265625 0.7734375
vn 0 0 -1
vn 1 0 0
vn 0 0 1
vn -1 0 0
vn 0 1 0
vn 0 -1 0
usemtl m_d129b6cb-3bf5-efd2-3362-110d26863c2d
f 4/4/1 7/3/1 5/2/1 2/1/1
f 3/8/2 4/7/2 2/6/2 1/5/2
f 8/12/3 3/11/3 1/10/3 6/9/3
f 7/16/4 8/15/4 6/14/4 5/13/4
f 6/20/5 1/19/5 2/18/5 5/17/5
f 7/24/6 4/23/6 3/22/6 8/21/6
o cube
v -0.06249999999999989 5.375 -1.1875
v -0.06250000000000011 5.375 -0.06249999999999989
v -0.06250000000000011 5.5 -0.06249999999999989
v -0.06249999999999989 5.5 -1.1875
v 0.06250000000000011 5.375 -1.1875
v 0.06250000000000011 5.5 -1.1875
v 0.06249999999999989 5.375 -0.06249999999999989
v 0.06249999999999989 5.5 -0.06249999999999989
vt 0.25 0.9375
vt 0.390625 0.9375
vt 0.390625 0.953125
vt 0.25 0.953125
vt 0.25 0.84375
vt 0.265625 0.84375
vt 0.265625 0.859375
vt 0.25 0.859375
vt 0.25 0.9140625
vt 0.390625 0.9140625
vt 0.390625 0.9296875
vt 0.25 0.9296875
vt 0.25 0.8203125
vt 0.265625 0.8203125
vt 0.265625 0.8359375
vt 0.25 0.8359375
vt 0.25 0.890625
vt 0.390625 0.890625
vt 0.390625 0.90625
vt 0.25 0.90625
vt 0.25 0.8671875
vt 0.390625 0.8671875
vt 0.390625 0.8828125
vt 0.25 0.8828125
vn -1 0 -2.220446049250313e-16
vn 2.220446049250313e-16 0 -1
vn 1 0 2.220446049250313e-16
vn -2.220446049250313e-16 0 1
vn 0 1 0
vn 0 -1 0
usemtl m_d129b6cb-3bf5-efd2-3362-110d26863c2d
f 9/25/7 10/26/7 11/27/7 12/28/7
f 13/29/8 9/30/8 12/31/8 14/32/8
f 15/33/9 13/34/9 14/35/9 16/36/9
f 10/37/10 15/38/10 16/39/10 11/40/10
f 16/41/11 14/42/11 12/43/11 11/44/11
f 10/45/12 9/46/12 13/47/12 15/48/12
o plane
v 3.3306690738754696e-16 2.625 -1.1249999999999996
v -2.7755575615628914e-16 5.375 -1.125
v -3.3306690738754696e-16 5.375 -0.1250000000000001
v 2.7755575615628914e-16 2.625 -0.12499999999999967
vt 0.125 0.65625
vt 0.125 1
vt 0 1
vt 0 0.65625
vn 1 2.2204460492503128e-16 5.551115123125783e-17
usemtl m_d129b6cb-3bf5-efd2-3362-110d26863c2d
f 17/49/13 18/50/13 19/51/13 20/52/13
o cube
v 0.06249999999999999 5.9519026560867285 0.009907041736319185
v 0.06250000000000001 5.497466080153185 -1.0871999031208337
v 0.0625 5.836417714522818 0.05774247078195542
v 0.06250000000000003 5.381981138589274 -1.0393644740751975
v -0.06249999999999999 5.497466080153185 -1.0871999031208337
v -0.06250000000000001 5.9519026560867285 0.009907041736319185
v -0.06249999999999998 5.381981138589274 -1.0393644740751975
v -0.0625 5.836417714522818 0.05774247078195542
vt 0.25 0.765625
vt 0.265625 0.765625
vt 0.265625 0.75
vt 0.25 0.75
vt 0.2265625 1
vt 0.375 1
vt 0.375 0.984375
vt 0.2265625 0.984375
vt 0.25 0.7421875
vt 0.265625 0.7421875
vt 0.265625 0.7265625
vt 0.25 0.7265625
vt 0.2265625 0.9765625
vt 0.375 0.9765625
vt 0.375 0.9609375
vt 0.2265625 0.9609375
vt 0.2421875 0.8046875
vt 0.2265625 0.8046875
vt 0.2265625 0.953125
vt 0.2421875 0.953125
vt 0.2421875 0.796875
vt 0.2265625 0.796875
vt 0.2265625 0.6484375
vt 0.2421875 0.6484375
vn 1.9119642657343758e-17 -0.3826834323650899 -0.9238795325112867
vn 1 6.960411985564012e-17 -8.136018356561953e-18
vn -1.9119642657343758e-17 0.3826834323650899 0.9238795325112867
vn -1 -6.960411985564012e-17 8.136018356561953e-18
vn -6.741934114356287e-17 0.9238795325112867 -0.3826834323650899
vn 6.741934114356287e-17 -0.9238795325112867 0.3826834323650899
usemtl m_d129b6cb-3bf5-efd2-3362-110d26863c2d
f 24/56/14 27/55/14 25/54/14 22/53/14
f 23/60/15 24/59/15 22/58/15 21/57/15
f 28/64/16 23/63/16 21/62/16 26/61/16
f 27/68/17 28/67/17 26/66/17 25/65/17
f 26/72/18 21/71/18 22/70/18 25/69/18
f 27/76/19 24/75/19 23/74/19 28/73/19