# Made in Blockbench 5.1.5
mtllib playermodel.mtl

o Head
v -0.2707169675633538 1.5261324119659962 0.22589495804664
v 0.22738038148234369 1.526132007321694 0.26947282942059464
v 0.23193592666100152 2.023392935282289 0.21740732710002306
v -0.26616142238469587 2.0233933399265904 0.17382945572606848
v -0.22737786418345116 1.47386799267711 -0.26947374564246224
v -0.22282231900479332 1.9711289206377047 -0.32153924796303374
v 0.2707194848622463 1.4738675880328078 -0.2258958742685076
v 0.27527503004090403 1.9711285159934027 -0.2779613765890791
vt 0.125 0.75
vt 0.25 0.75
vt 0.25 0.875
vt 0.125 0.875
vt 0 0.75
vt 0.125 0.75
vt 0.125 0.875
vt 0 0.875
vt 0.375 0.75
vt 0.5 0.75
vt 0.5 0.875
vt 0.375 0.875
vt 0.25 0.75
vt 0.375 0.75
vt 0.375 0.875
vt 0.25 0.875
vt 0.25 1
vt 0.125 1
vt 0.125 0.875
vt 0.25 0.875
vt 0.375 0.875
vt 0.25 0.875
vt 0.25 1
vt 0.375 1
vn -0.08667820675980503 0.10452883857777232 0.9907374073782046
vn -0.9961946980913948 8.092886042932052e-7 -0.0871557427479093
vn 0.08667820675980503 -0.10452883857777226 -0.9907374073782046
vn 0.9961946980913948 -8.092886042932052e-7 0.0871557427479093
vn 0.009111090357315705 0.9945218559211895 -0.10413100464114337
vn -0.009111090357315705 -0.9945218559211895 0.10413100464114337
usemtl none
f 1/1/1 2/2/1 3/3/1 4/4/1
f 5/5/2 1/6/2 4/7/2 6/8/2
f 7/9/3 5/10/3 6/11/3 8/12/3
f 2/13/4 7/14/4 8/15/4 3/16/4
f 8/17/5 6/18/5 4/19/5 3/20/5
f 2/21/6 1/22/6 5/23/6 7/24/6
o Hat
v -0.3048414674136197 1.4983201554642833 0.25738597896137244
v 0.2555180502627898 1.4983197002394433 0.30641108425707136
v 0.2606430385887798 2.057738244195113 0.24783739414642839
v -0.2997164790876298 2.057738699419953 0.1988122888507294
v -0.25608497611122943 1.4395226837642865 -0.2999038126888675
v -0.2509599877852394 1.9989412277199559 -0.35847750279951046
v 0.3042745415651801 1.4395222285394464 -0.25087870739316853
v 0.3093995298911701 1.9989407724951158 -0.30945239750381154
vt 0.625 0.75
vt 0.75 0.75
vt 0.75 0.875
vt 0.625 0.875
vt 0.5 0.75
vt 0.625 0.75
vt 0.625 0.875
vt 0.5 0.875
vt 0.875 0.75
vt 1 0.75
vt 1 0.875
vt 0.875 0.875
vt 0.75 0.75
vt 0.875 0.75
vt 0.875 0.875
vt 0.75 0.875
vt 0.75 1
vt 0.625 1
vt 0.625 0.875
vt 0.75 0.875
vt 0.875 0.875
vt 0.75 0.875
vt 0.75 1
vt 0.875 1
vn -0.08667820675980505 0.10452883857777226 0.9907374073782047
vn -0.9961946980913949 8.092886042354669e-7 -0.0871557427479093
vn 0.08667820675980505 -0.10452883857777223 -0.9907374073782047
vn 0.9961946980913949 -8.092886042354669e-7 0.0871557427479093
vn 0.00911109035731569 0.9945218559211896 -0.1041310046411432
vn -0.009111090357315655 -0.9945218559211895 0.10413100464114279
usemtl none
f 9/25/7 10/26/7 11/27/7 12/28/7
f 13/29/8 9/30/8 12/31/8 14/32/8
f 15/33/9 13/34/9 14/35/9 16/36/9
f 10/37/10 15/38/10 16/39/10 11/40/10
f 16/41/11 14/42/11 12/43/11 11/44/11
f 10/45/12 9/46/12 13/47/12 15/48/12
o Body
v -0.2499993706751888 0.7500002479505198 0.12499977094446321
v 0.25000062932463507 0.7499998284007044 0.12499977094459128
v 0.25000125864935824 1.4999998284004055 0.12499954188912438
v -0.24999874135046568 1.5000002479502208 0.12499954188899631
v -0.24999937067518885 0.7500001715986976 -0.12500022905552508
v -0.24999874135046574 1.5000001715983986 -0.12500045811099197
v 0.25000062932463507 0.7499997520488823 -0.125000229055397
v 0.25000125864935824 1.4999997520485833 -0.1250004581108639
vt 0.3125 0.5
vt 0.4375 0.5
vt 0.4375 0.6875
vt 0.3125 0.6875
vt 0.25 0.5
vt 0.3125 0.5
vt 0.3125 0.6875
vt 0.25 0.6875
vt 0.5 0.5
vt 0.625 0.5
vt 0.625 0.6875
vt 0.5 0.6875
vt 0.4375 0.5
vt 0.5 0.5
vt 0.5 0.6875
vt 0.4375 0.6875
vt 0.4375 0.75
vt 0.3125 0.75
vt 0.3125 0.6875
vt 0.4375 0.6875
vt 0.5625 0.6875
vt 0.4375 0.6875
vt 0.4375 0.75
vt 0.5625 0.75
vn 1.224646799148109e-16 3.054072892007965e-7 0.9999999999999535
vn -0.999999999999648 8.390996308366099e-7 -2.5614467894329527e-13
vn -1.224646799148109e-16 -3.054072892007965e-7 -0.9999999999999535
vn 0.999999999999648 -8.390996308366099e-7 2.5614467894329527e-13
vn 8.390996308366491e-7 0.9999999999996014 -3.054072892006891e-7
vn -8.390996308366491e-7 -0.9999999999996014 3.054072892006891e-7
usemtl none
f 17/49/13 18/50/13 19/51/13 20/52/13
f 21/53/14 17/54/14 20/55/14 22/56/14
f 23/57/15 21/58/15 22/59/15 24/60/15
f 18/61/16 23/62/16 24/63/16 19/64/16
f 24/65/17 22/66/17 20/67/17 19/68/17
f 18/69/18 17/70/18 21/71/18 23/72/18
o Body
v -0.2656243837861151 0.7343752658334467 0.14062477571644738
v 0.26562561621369785 0.7343748200617678 0.14062477571658347
v 0.26562627176028447 1.5156248200614566 0.14062453711713876
v -0.26562372823952846 1.5156252658331353 0.14062453711700268
v -0.2656243837861151 0.7343751799376467 -0.14062522428353946
v -0.26562372823952846 1.515625179937335 -0.14062546288298416
v 0.26562561621369785 0.7343747341659678 -0.14062522428340338
v 0.26562627176028447 1.5156247341656564 -0.14062546288284808
vt 0.3125 0.25
vt 0.4375 0.25
vt 0.4375 0.4375
vt 0.3125 0.4375
vt 0.25 0.25
vt 0.3125 0.25
vt 0.3125 0.4375
vt 0.25 0.4375
vt 0.5 0.25
vt 0.625 0.25
vt 0.625 0.4375
vt 0.5 0.4375
vt 0.4375 0.25
vt 0.5 0.25
vt 0.5 0.4375
vt 0.4375 0.4375
vt 0.4375 0.5
vt 0.3125 0.5
vt 0.3125 0.4375
vt 0.4375 0.4375
vt 0.5625 0.4375
vt 0.4375 0.4375
vt 0.4375 0.5
vt 0.5625 0.5
vn 1.224646799148109e-16 3.054072892007965e-7 0.9999999999999535
vn -0.999999999999648 8.390996308366099e-7 -2.5614467894329527e-13
vn -1.224646799148109e-16 -3.054072892007965e-7 -0.9999999999999535
vn 0.999999999999648 -8.390996308366099e-7 2.5614467894329527e-13
vn 8.390996308366491e-7 0.9999999999996014 -3.054072892006891e-7
vn -8.390996308366491e-7 -0.9999999999996014 3.054072892006891e-7
usemtl none
f 25/73/19 26/74/19 27/75/19 28/76/19
f 29/77/20 25/78/20 28/79/20 30/80/20
f 31/81/21 29/82/21 30/83/21 32/84/21
f 26/85/22 31/86/22 32/87/22 27/88/22
f 32/89/23 30/90/23 28/91/23 27/92/23
f 26/93/24 25/94/24 29/95/24 31/96/24
o Right
v -0.49999934449420497 0.7812016668670605 0.23163084158368485
v -0.24999934449429306 0.7812014570921527 0.2316308415837489
v -0.24999872473042659 1.5198072320759497 0.10139448275795758
v -0.4999987247303386 1.5198074418508574 0.10139448275789355
v -0.49999938092123547 0.7377895472584788 -0.014571083411000793
v -0.49999876115736896 1.4763953222422757 -0.14480744223679215
v -0.24999938092132354 0.737789337483571 -0.014571083410936755
v -0.24999876115745706 1.476395112467368 -0.14480744223672812
vt 0.6875 0.5
vt 0.75 0.5
vt 0.75 0.6875
vt 0.6875 0.6875
vt 0.625 0.5
vt 0.6875 0.5
vt 0.6875 0.6875
vt 0.625 0.6875
vt 0.8125 0.5
vt 0.875 0.5
vt 0.875 0.6875
vt 0.8125 0.6875
vt 0.75 0.5
vt 0.8125 0.5
vt 0.8125 0.6875
vt 0.75 0.6875
vt 0.75 0.75
vt 0.6875 0.75
vt 0.6875 0.6875
vt 0.75 0.6875
vt 0.8125 0.6875
vt 0.75 0.6875
vt 0.75 0.75
vt 0.8125 0.75
vn 1.4570812189638226e-7 0.17364847843432732 0.9848076999787431
vn -0.999999999999648 8.390996308366099e-7 -2.5614467894329527e-13
vn -1.4570812189638232e-7 -0.1736484784343274 -0.9848076999787431
vn 0.999999999999648 -8.390996308366099e-7 2.5614467894329527e-13
vn 8.263518219763477e-7 0.9848076999783962 -0.17364847843438824
vn -8.263518219763477e-7 -0.9848076999783962 0.17364847843438827
usemtl none
f 33/97/25 34/98/25 35/99/25 36/100/25
f 37/101/26 33/102/26 36/103/26 38/104/26
f 39/105/27 37/106/27 38/107/27 40/108/27
f 34/109/28 39/110/28 40/111/28 35/112/28
f 40/113/29 38/114/29 36/115/29 35/116/29
f 34/117/30 33/118/30 37/119/30 39/120/30
o Right
v -0.5156243551292573 0.7685273171413661 0.24973171937138602
v -0.23437435512935637 0.768527081144595 0.24973171937145805
v -0.23437370954199543 1.537908096752717 0.11406884559459211
v -0.5156237095418964 1.5379083327494882 0.11406884559452007
v -0.5156243961096666 0.7196886825817116 -0.02724544624763535
v -0.5156237505223056 1.4890696981898335 -0.16290832002450129
v -0.23437439610976565 0.7196884465849405 -0.02724544624756331
v -0.23437375052240475 1.4890694621930622 -0.16290832002442923
vt 0.6875 0.25
vt 0.75 0.25
vt 0.75 0.4375
vt 0.6875 0.4375
vt 0.625 0.25
vt 0.6875 0.25
vt 0.6875 0.4375
vt 0.625 0.4375
vt 0.8125 0.25
vt 0.875 0.25
vt 0.875 0.4375
vt 0.8125 0.4375
vt 0.75 0.25
vt 0.8125 0.25
vt 0.8125 0.4375
vt 0.75 0.4375
vt 0.75 0.5
vt 0.6875 0.5
vt 0.6875 0.4375
vt 0.75 0.4375
vt 0.8125 0.4375
vt 0.75 0.4375
vt 0.75 0.5
vt 0.8125 0.5
vn 1.457081218963823e-7 0.17364847843432735 0.9848076999787431
vn -0.999999999999648 8.390996308366099e-7 -2.5614467894329527e-13
vn -1.4570812189638226e-7 -0.17364847843432732 -0.9848076999787431
vn 0.999999999999648 -8.390996308366099e-7 2.5614467894329527e-13
vn 8.263518219763477e-7 0.9848076999783962 -0.17364847843438866
vn -8.263518219763477e-7 -0.9848076999783962 0.17364847843438863
usemtl none
f 41/121/31 42/122/31 43/123/31 44/124/31
f 45/125/32 41/126/32 44/127/32 46/128/32
f 47/129/33 45/130/33 46/131/33 48/132/33
f 42/133/34 47/134/34 48/135/34 43/136/34
f 48/137/35 46/138/35 44/139/35 43/140/35
f 42/141/36 41/142/36 45/143/36 47/144/36
o Left
v 0.2500006189775198 0.7376685760695344 -0.007676581958734362
v 0.5000006189774318 0.7376683662946266 -0.007676581958670326
v 0.5000012345498998 1.471279114467998 0.14825696210458644
v 0.2500012345499878 1.4712793242429056 0.14825696210452238
v 0.2500006625921755 0.7896464240906018 -0.2522134980166108
v 0.25000127816464357 1.523257172263973 -0.09627995395335405
v 0.5000006625920875 0.789646214315694 -0.25221349801654674
v 0.5000012781645555 1.5232569624890653 -0.09627995395329002
vt 0.5625 0
vt 0.625 0
vt 0.625 0.1875
vt 0.5625 0.1875
vt 0.5 0
vt 0.5625 0
vt 0.5625 0.1875
vt 0.5 0.1875
vt 0.6875 0
vt 0.75 0
vt 0.75 0.1875
vt 0.6875 0.1875
vt 0.625 0
vt 0.6875 0
vt 0.6875 0.1875
vt 0.625 0.1875
vt 0.625 0.25
vt 0.5625 0.25
vt 0.5625 0.1875
vt 0.625 0.1875
vt 0.6875 0.1875
vt 0.625 0.1875
vt 0.625 0.25
vt 0.6875 0.25
vn -1.7445862289201677e-7 -0.20791139208426915 0.978147664231506
vn -0.999999999999648 8.390996308366099e-7 -2.5614467894329527e-13
vn 1.7445862289201677e-7 0.20791139208426915 -0.978147664231506
vn 0.999999999999648 -8.390996308366099e-7 2.5614467894329527e-13
vn 8.20763290704952e-7 0.9781476642311614 0.20791139208434276
vn -8.20763290704952e-7 -0.9781476642311614 -0.20791139208434276
usemtl none
f 49/145/37 50/146/37 51/147/37 52/148/37
f 53/149/38 49/150/38 52/151/38 54/152/38
f 55/153/39 53/154/39 54/155/39 56/156/39
f 50/157/40 55/158/40 56/159/40 51/160/40
f 56/161/41 54/162/41 52/163/41 51/164/41
f 50/165/42 49/166/42 53/167/42 55/168/42
o Left
v 0.23437560342718292 0.7191364164255376 0.004358359793561058
v 0.5156256034270839 0.7191361804287665 0.004358359793633099
v 0.5156262446484047 1.4833140431093614 0.16678913485952554
v 0.23437624464850376 1.4833142791061327 0.16678913485945351
v 0.2343756524936706 0.7776114954492384 -0.27074567077154993
v 0.23437629371499147 1.5417893581298332 -0.10831489570565747
v 0.5156256524935715 0.7776112594524672 -0.2707456707714779
v 0.5156262937148923 1.541789122133062 -0.10831489570558543
vt 0.8125 0
vt 0.875 0
vt 0.875 0.1875
vt 0.8125 0.1875
vt 0.75 0
vt 0.8125 0
vt 0.8125 0.1875
vt 0.75 0.1875
vt 0.9375 0
vt 1 0
vt 1 0.1875
vt 0.9375 0.1875
vt 0.875 0
vt 0.9375 0
vt 0.9375 0.1875
vt 0.875 0.1875
vt 0.875 0.25
vt 0.8125 0.25
vt 0.8125 0.1875
vt 0.875 0.1875
vt 0.9375 0.1875
vt 0.875 0.1875
vt 0.875 0.25
vt 0.9375 0.25
vn -1.7445862289201674e-7 -0.20791139208426912 0.9781476642315059
vn -0.999999999999648 8.390996308366099e-7 -2.5614467894329527e-13
vn 1.744586228920168e-7 0.20791139208426918 -0.9781476642315059
vn 0.999999999999648 -8.390996308366099e-7 2.5614467894329527e-13
vn 8.207632907049522e-7 0.9781476642311616 0.20791139208434203
vn -8.207632907049522e-7 -0.9781476642311616 -0.20791139208434284
usemtl none
f 57/169/43 58/170/43 59/171/43 60/172/43
f 61/173/44 57/174/44 60/175/44 62/176/44
f 63/177/45 61/178/45 62/179/45 64/180/45
f 58/181/46 63/182/46 64/183/46 59/184/46
f 64/185/47 62/186/47 60/187/47 59/188/47
f 58/189/48 57/190/48 61/191/48 63/192/48
o Right
v -0.27019997100624044 -0.0052458393979702735 -0.020403346999333948
v -0.02035227157259319 -0.013970923220710543 -0.020403344334629783
v 0.005342066802191939 0.7218010009428877 0.12270317748767663
v -0.2445056326314553 0.7305260847656281 0.12270317482297247
v -0.2685351465274472 0.0424272741790784 -0.2658101574209777
v -0.24284080815266207 0.7781991983426767 -0.12270363559867128
v -0.018687447093799926 0.033702190356338126 -0.26581015475627356
v 0.007006891280985204 0.7694741145199364 -0.12270363293396712
vt 0.0625 0.5
vt 0.125 0.5
vt 0.125 0.6875
vt 0.0625 0.6875
vt 0 0.5
vt 0.0625 0.5
vt 0.0625 0.6875
vt 0 0.6875
vt 0.1875 0.5
vt 0.25 0.5
vt 0.25 0.6875
vt 0.1875 0.6875
vt 0.125 0.5
vt 0.1875 0.5
vt 0.1875 0.6875
vt 0.125 0.6875
vt 0.125 0.75
vt 0.0625 0.75
vt 0.0625 0.6875
vt 0.125 0.6875
vt 0.1875 0.6875
vt 0.125 0.6875
vt 0.125 0.75
vt 0.1875 0.75
vn -0.0066592979151730465 -0.1906924543081946 0.9816272416865753
vn -0.9993907977345892 0.034900335290961065 -1.065881662938837e-8
vn 0.006659297915173048 0.19069245430819456 -0.9816272416865753
vn 0.9993907977345892 -0.034900335290961065 1.065881666986525e-8
vn 0.034259117833047005 0.981029232218131 0.1908086957630756
vn -0.03425911783304686 -0.981029232218131 -0.19080869576307533
usemtl none
f 65/193/49 66/194/49 67/195/49 68/196/49
f 69/197/50 65/198/50 68/199/50 70/200/50
f 71/201/51 69/202/51 70/203/51 72/204/51
f 66/205/52 71/206/52 72/207/52 67/208/52
f 72/209/53 70/210/53 68/211/53 67/212/53
f 66/213/54 65/214/54 69/215/54 71/216/54
o Right
v -0.2864548024669094 -0.023008673011022843 -0.008046807385823274
v -0.005376140604056172 -0.032824392311605645 -0.008046804388031084
v 0.02138879520301168 0.7336046953588092 0.14102248917687144
v -0.25968986665984156 0.7434204146593919 0.14102248617907925
v -0.284581874928267 0.030623579763156914 -0.2841294691101725
v -0.257816939121199 0.7970526674335718 -0.13506017554526997
v -0.0035032130654137515 0.02080786046257411 -0.2841294661123803
v 0.02326172274165409 0.787236948132989 -0.1350601725474778
vt 0.0625 0.25
vt 0.125 0.25
vt 0.125 0.4375
vt 0.0625 0.4375
vt 0 0.25
vt 0.0625 0.25
vt 0.0625 0.4375
vt 0 0.4375
vt 0.1875 0.25
vt 0.25 0.25
vt 0.25 0.4375
vt 0.1875 0.4375
vt 0.125 0.25
vt 0.1875 0.25
vt 0.1875 0.4375
vt 0.125 0.4375
vt 0.125 0.5
vt 0.0625 0.5
vt 0.0625 0.4375
vt 0.125 0.4375
vt 0.1875 0.4375
vt 0.125 0.4375
vt 0.125 0.5
vt 0.1875 0.5
vn -0.006659297915173041 -0.1906924543081946 0.9816272416865753
vn -0.999390797734589 0.03490033529096109 -1.065881674898407e-8
vn 0.006659297915173045 0.1906924543081946 -0.9816272416865753
vn 0.999390797734589 -0.03490033529096106 1.0658816678916651e-8
vn 0.03425911783304696 0.981029232218131 0.19080869576307563
vn -0.03425911783304683 -0.981029232218131 -0.19080869576307533
usemtl none
f 73/217/55 74/218/55 75/219/55 76/220/55
f 77/221/56 73/222/56 76/223/56 78/224/56
f 79/225/57 77/226/57 78/227/57 80/228/57
f 74/229/58 79/230/58 80/231/58 75/232/58
f 80/233/59 78/234/59 76/235/59 75/236/59
f 74/237/60 73/238/60 77/239/60 79/240/60
o Left
v 0.018845613049057058 0.029174547902695063 0.253337093466616
v 0.26869332712478167 0.03789921243119833 0.2533370908020398
v 0.24291697531447864 0.7760550703385527 0.12310073211365638
v -0.006930738761245994 0.7673304058100494 0.12310073477823255
v 0.020360635145186996 -0.014211127532667329 0.007135168463854046
v -0.005415716665116054 0.7239447303746871 -0.12310119022452937
v 0.2702083492209117 -0.005486463004164066 0.007135165799277873
v 0.2444319974106086 0.7326693949031904 -0.12310119288910554
vt 0.3125 0
vt 0.375 0
vt 0.375 0.1875
vt 0.3125 0.1875
vt 0.25 0
vt 0.3125 0
vt 0.3125 0.1875
vt 0.25 0.1875
vt 0.4375 0
vt 0.5 0
vt 0.5 0.1875
vt 0.4375 0.1875
vt 0.375 0
vt 0.4375 0
vt 0.4375 0.1875
vt 0.375 0.1875
vt 0.375 0.25
vt 0.3125 0.25
vt 0.3125 0.1875
vt 0.375 0.1875
vt 0.4375 0.1875
vt 0.375 0.1875
vt 0.375 0.25
vt 0.4375 0.25
vn -0.006060088384519763 0.17354270174144956 0.984807700011048
vn -0.9993908563028987 -0.034898658114013034 1.0658304697206128e-8
vn 0.00606008838451976 -0.17354270174144956 -0.984807700011048
vn 0.9993908563028987 0.03489865811401306 -1.0658304587340316e-8
vn -0.03436846908040425 0.9842078105431392 -0.1736484782511777
vn 0.0343684690804041 -0.9842078105431392 0.17364847825117793
usemtl none
f 81/241/61 82/242/61 83/243/61 84/244/61
f 85/245/62 81/246/62 84/247/62 86/248/62
f 87/249/63 85/250/63 86/251/63 88/252/63
f 82/253/64 87/254/64 88/255/64 83/256/64
f 88/257/65 86/258/65 84/259/65 83/260/65
f 82/261/66 81/262/66 85/263/66 87/264/66
o Left
v 0.0036724493676974584 0.015962614044637214 0.2714379714184993
v 0.2847511277028878 0.02577786163920338 0.27143796842085105
v 0.2579007612338221 0.7946902136260309 0.13577509478711836
v -0.02317791710136821 0.7848749660314648 0.13577509778476654
v 0.005376849225843643 -0.032846270820145476 -0.005539194209607915
v -0.021473517243222034 0.736066081166682 -0.14120206784334066
v 0.2864555275610339 -0.02303102322557931 -0.005539197207256111
v 0.2596051610919683 0.7458813287612482 -0.14120207084098885
vt 0.0625 0
vt 0.125 0
vt 0.125 0.1875
vt 0.0625 0.1875
vt 0 0
vt 0.0625 0
vt 0.0625 0.1875
vt 0 0.1875
vt 0.1875 0
vt 0.25 0
vt 0.25 0.1875
vt 0.1875 0.1875
vt 0.125 0
vt 0.1875 0
vt 0.1875 0.1875
vt 0.125 0.1875
vt 0.125 0.25
vt 0.0625 0.25
vt 0.0625 0.1875
vt 0.125 0.1875
vt 0.1875 0.1875
vt 0.125 0.1875
vt 0.125 0.25
vt 0.1875 0.25
vn -0.006060088384519759 0.17354270174144956 0.9848077000110479
vn -0.9993908563028988 -0.03489865811401303 1.0658304680907435e-8
vn 0.006060088384519758 -0.1735427017414496 -0.9848077000110479
vn 0.9993908563028988 0.03489865811401295 -1.0658304743079902e-8
vn -0.03436846908040419 0.9842078105431392 -0.1736484782511781
vn 0.03436846908040408 -0.9842078105431392 0.1736484782511779
usemtl none
f 89/265/67 90/266/67 91/267/67 92/268/67
f 93/269/68 89/270/68 92/271/68 94/272/68
f 95/273/69 93/274/69 94/275/69 96/276/69
f 90/277/70 95/278/70 96/279/70 91/280/70
f 96/281/71 94/282/71 92/283/71 91/284/71
f 90/285/72 89/286/72 93/287/72 95/288/72