# Made in Blockbench 5.1.5
mtllib atm.mtl

o cube
v 0.5078125000000002 -0.5 0.5234374999999999
v 0.5078125 -0.5 -0.4765625000000001
v 0.5078125 0.375 -0.4765625000000001
v 0.5078125000000002 0.375 0.5234374999999999
v -0.4921874999999998 -0.5 0.5234375000000001
v -0.4921874999999998 0.375 0.5234375000000001
v -0.4921875 -0.5 -0.4765624999999999
v -0.4921875 0.375 -0.4765624999999999
vt 0.125 0.765625
vt 0.25 0.765625
vt 0.25 0.875
vt 0.125 0.875
vt 0 0.765625
vt 0.125 0.765625
vt 0.125 0.875
vt 0 0.875
vt 0.375 0.765625
vt 0.5 0.765625
vt 0.5 0.875
vt 0.375 0.875
vt 0.25 0.765625
vt 0.375 0.765625
vt 0.375 0.875
vt 0.25 0.875
vt 0.25 1
vt 0.125 1
vt 0.125 0.875
vt 0.25 0.875
vt 0.375 0.875
vt 0.25 0.875
vt 0.25 1
vt 0.375 1
vn 1 0 -2.220446049250313e-16
vn 2.220446049250313e-16 0 1
vn -1 0 2.220446049250313e-16
vn -2.220446049250313e-16 0 -1
vn 0 1 0
vn 0 -1 0
usemtl none
f 1/1/1 2/2/1 3/3/1 4/4/1
f 5/5/2 1/6/2 4/7/2 6/8/2
f 7/9/3 5/10/3 6/11/3 8/12/3
f 2/13/4 7/14/4 8/15/4 3/16/4
f 8/17/5 6/18/5 4/19/5 3/20/5
f 2/21/6 1/22/6 5/23/6 7/24/6
o cube
v 0.5078125000000002 0.375 0.5234374999999999
v 0.5078125 0.375 -0.2890625000000001
v 0.5078125 1.3125 -0.2890625000000001
v 0.5078125000000002 1.3125 0.5234374999999999
v -0.4921874999999998 0.375 0.5234375000000001
v -0.4921874999999998 1.3125 0.5234375000000001
v -0.4921875 0.375 -0.2890624999999999
v -0.4921875 1.3125 -0.2890624999999999
vt 0.125 0.515625
vt 0.2265625 0.515625
vt 0.2265625 0.6328125
vt 0.125 0.6328125
vt 0 0.515625
vt 0.125 0.515625
vt 0.125 0.6328125
vt 0 0.6328125
vt 0.3515625 0.515625
vt 0.453125 0.515625
vt 0.453125 0.6328125
vt 0.3515625 0.6328125
vt 0.2265625 0.515625
vt 0.3515625 0.515625
vt 0.3515625 0.6328125
vt 0.2265625 0.6328125
vt 0.2265625 0.7578125
vt 0.125 0.7578125
vt 0.125 0.6328125
vt 0.2265625 0.6328125
vt 0.328125 0.6328125
vt 0.2265625 0.6328125
vt 0.2265625 0.7578125
vt 0.328125 0.7578125
vn 1 0 -2.7328566760003855e-16
vn 2.220446049250313e-16 0 1
vn -1 0 2.7328566760003855e-16
vn -2.220446049250313e-16 0 -1
vn 0 1 0
vn 0 -1 0
usemtl none
f 9/25/7 10/26/7 11/27/7 12/28/7
f 13/29/8 9/30/8 12/31/8 14/32/8
f 15/33/9 13/34/9 14/35/9 16/36/9
f 10/37/10 15/38/10 16/39/10 11/40/10
f 16/41/11 14/42/11 12/43/11 11/44/11
f 10/45/12 9/46/12 13/47/12 15/48/12
o cube
v 0.38281250000000006 0.6875 -0.2890625000000001
v 0.3828125 0.6875 -0.3515625000000001
v 0.3828125 1 -0.3515625000000001
v 0.38281250000000006 1 -0.2890625000000001
v 0.007812500000000056 0.6875 -0.2890625
v 0.007812500000000056 1 -0.2890625
v 0.0078125 0.6875 -0.3515625
v 0.0078125 1 -0.3515625
vt 0.046875 0.9140625
vt 0.0546875 0.9140625
vt 0.0546875 0.953125
vt 0.046875 0.953125
vt 0 0.9140625
vt 0.046875 0.9140625
vt 0.046875 0.953125
vt 0 0.953125
vt 0.1015625 0.9140625
vt 0.109375 0.9140625
vt 0.109375 0.953125
vt 0.1015625 0.953125
vt 0.0546875 0.9140625
vt 0.1015625 0.9140625
vt 0.1015625 0.953125
vt 0.0546875 0.953125
vt 0.0546875 1
vt 0.046875 1
vt 0.046875 0.953125
vt 0.0546875 0.953125
vt 0.0625 0.953125
vt 0.0546875 0.953125
vt 0.0546875 1
vt 0.0625 1
vn 1 0 -8.881784197001252e-16
vn 2.9605947323337506e-16 0 1
vn -1 0 8.881784197001252e-16
vn -2.9605947323337506e-16 0 -1
vn 0 1 0
vn 0 -1 0
usemtl none
f 17/49/13 18/50/13 19/51/13 20/52/13
f 21/53/14 17/54/14 20/55/14 22/56/14
f 23/57/15 21/58/15 22/59/15 24/60/15
f 18/61/16 23/62/16 24/63/16 19/64/16
f 24/65/17 22/66/17 20/67/17 19/68/17
f 18/69/18 17/70/18 21/71/18 23/72/18
o cube
v 0.44531250000000006 1.1875 -0.1640625000000001
v 0.4453125 1.1875 -0.3515625000000001
v 0.4453125 1.4375 -0.3515625000000001
v 0.44531250000000006 1.4375 -0.1640625000000001
v -0.4296874999999999 1.1875 -0.1640624999999999
v -0.4296874999999999 1.4375 -0.1640624999999999
v -0.4296875 1.1875 -0.3515624999999999
v -0.4296875 1.4375 -0.3515624999999999
vt 0.4609375 0.4765625
vt 0.484375 0.4765625
vt 0.484375 0.5078125
vt 0.4609375 0.5078125
vt 0.3515625 0.4765625
vt 0.4609375 0.4765625
vt 0.4609375 0.5078125
vt 0.3515625 0.5078125
vt 0.59375 0.4765625
vt 0.6171875 0.4765625
vt 0.6171875 0.5078125
vt 0.59375 0.5078125
vt 0.484375 0.4765625
vt 0.59375 0.4765625
vt 0.59375 0.5078125
vt 0.484375 0.5078125
vt 0.484375 0.6171875
vt 0.4609375 0.6171875
vt 0.4609375 0.5078125
vt 0.484375 0.5078125
vt 0.5078125 0.5078125
vt 0.484375 0.5078125
vt 0.484375 0.6171875
vt 0.5078125 0.6171875
vn 1 0 -2.9605947323337506e-16
vn 2.5376526277146434e-16 0 1
vn -1 0 5.921189464667501e-16
vn -2.5376526277146434e-16 0 -1
vn 0 1 0
vn 0 -1 0
usemtl none
f 25/73/19 26/74/19 27/75/19 28/76/19
f 29/77/20 25/78/20 28/79/20 30/80/20
f 31/81/21 29/82/21 30/83/21 32/84/21
f 26/85/22 31/86/22 32/87/22 27/88/22
f 32/89/23 30/90/23 28/91/23 27/92/23
f 26/93/24 25/94/24 29/95/24 31/96/24