# Made in Blockbench 5.1.6
mtllib awnings.mtl

o cube
v 0.49999998771058185 -0.437500301118907 -0.4374998849939702
v 0.4999999877105793 -0.4375003394542229 -0.4999998849939584
v 0.49999998361411546 -0.5000003011188952 -0.43749984665865427
v 0.49999998361411296 -0.500000339454211 -0.4999998466586425
v -0.5000000122894186 -0.43750027391076013 -0.4999998849939584
v -0.500000012289416 -0.4375002355754442 -0.4374998849939702
v -0.500000016385885 -0.5000002739107482 -0.4999998466586425
v -0.5000000163858825 -0.5000002355754323 -0.43749984665865427
vt 0.28125 1
vt 0.53125 1
vt 0.53125 0.984375
vt 0.28125 0.984375
vt 0.28125 0.75
vt 0.296875 0.75
vt 0.296875 0.734375
vt 0.28125 0.734375
vt 0.28125 0.96875
vt 0.53125 0.96875
vt 0.53125 0.953125
vt 0.28125 0.953125
vt 0.28125 0.71875
vt 0.296875 0.71875
vt 0.296875 0.703125
vt 0.28125 0.703125
vt 0.53125 0.921875
vt 0.28125 0.921875
vt 0.28125 0.9375
vt 0.53125 0.9375
vt 0.53125 0.90625
vt 0.28125 0.90625
vt 0.28125 0.890625
vt 0.53125 0.890625
vn -4.0202069618782464e-14 -6.133650544112782e-7 -0.9999999999998119
vn 0.9999999999999979 -6.554346278721282e-8 -6.310887241768095e-30
vn 4.0202069618782464e-14 6.133650544112782e-7 0.9999999999998119
vn -0.9999999999999979 6.554346278721282e-8 6.310887241768095e-30
vn 6.55434627872005e-8 0.9999999999998098 -6.133650544112796e-7
vn -6.55434627872005e-8 -0.9999999999998098 6.133650544112796e-7
usemtl m_9c555f97-de9f-242a-9686-4d72f95a58ba
f 4/4/1 7/3/1 5/2/1 2/1/1
f 3/8/2 4/7/2 2/6/2 1/5/2
f 8/12/3 3/11/3 1/10/3 6/9/3
f 7/16/4 8/15/4 6/14/4 5/13/4
f 6/20/5 1/19/5 2/18/5 5/17/5
f 7/24/6 4/23/6 3/22/6 8/21/6
o cube
v 0.5000000163858846 2.7391074824967276e-7 0.4999998466586423
v 0.5000000163858821 2.355754323418724e-7 0.43749984665865405
v 0.5000000122894181 -0.06249972608923986 0.4999998849939582
v 0.5000000122894156 -0.06249976442455576 0.4374998849939699
v -0.49999998361411596 3.011188951240751e-7 0.43749984665865405
v -0.49999998361411346 3.3945421101799766e-7 0.4999998466586423
v -0.49999998771058235 -0.06249969888109297 0.4374998849939699
v -0.49999998771057985 -0.062499660545777075 0.4999998849939582
vt 0.28125 0.875
vt 0.53125 0.875
vt 0.53125 0.859375
vt 0.28125 0.859375
vt 0.3125 0.75
vt 0.328125 0.75
vt 0.328125 0.734375
vt 0.3125 0.734375
vt 0.28125 0.84375
vt 0.53125 0.84375
vt 0.53125 0.828125
vt 0.28125 0.828125
vt 0.28125 0.6875
vt 0.296875 0.6875
vt 0.296875 0.671875
vt 0.28125 0.671875
vt 0.53125 0.796875
vt 0.28125 0.796875
vt 0.28125 0.8125
vt 0.53125 0.8125
vt 0.53125 0.78125
vt 0.28125 0.78125
vt 0.28125 0.765625
vt 0.53125 0.765625
vn -4.0202069618782464e-14 -6.133650544112782e-7 -0.9999999999998119
vn 0.9999999999999979 -6.554346278721282e-8 -6.310887241768095e-30
vn 4.0202069618782464e-14 6.133650544112782e-7 0.9999999999998119
vn -0.9999999999999979 6.554346278721282e-8 6.310887241768095e-30
vn 6.55434627872005e-8 0.9999999999998098 -6.133650544112796e-7
vn -6.55434627872005e-8 -0.9999999999998098 6.133650544112796e-7
usemtl m_9c555f97-de9f-242a-9686-4d72f95a58ba
f 12/28/7 15/27/7 13/26/7 10/25/7
f 11/32/8 12/31/8 10/30/8 9/29/8
f 16/36/9 11/35/9 9/34/9 14/33/9
f 15/40/10 16/39/10 14/38/10 13/37/10
f 14/44/11 9/43/11 10/42/11 13/41/11
f 15/48/12 12/47/12 11/46/12 16/45/12
o mesh
v -0.49999998681965524 -0.04890678090068201 0.46957132308460076
v 0.5000000131803429 -0.04890684644414478 0.46957132308460064
v -0.49999998681965524 -0.04890678090068201 0.46957132308460076
v 0.5000000131803429 -0.04890684644414478 0.46957132308460064
v -0.5000000162507999 -0.49793927464121013 -0.49338042522118125
v 0.49999998374919824 -0.4979393401846729 -0.49338042522118125
v -0.5000000162507999 -0.49793927464121013 -0.49338042522118125
v 0.49999998374919824 -0.4979393401846729 -0.49338042522118125
vt 0 0.75
vt 0 0.75
vt 0 1
vt 0 1
vt 0 0.75
vt 0 1
vt 0 0.75
vt 0 1
vt 0 0.75
vt 0.265625 0.75
vt 0.265625 1
vt 0 1
vt 0.265625 0.484375
vt 0.265625 0.734375
vt 0 0.734375
vt 0 0.484375
vt 0.265625 1
vt 0 1
vt 0.265625 1
vt 0 1
vt 0.265625 1
vt 0.265625 1
vt 0 1
vt 0 1
vn 0 0 0
vn 0 0 0
vn 5.940253367633786e-8 0.9063075278172045 -0.422618817638145
vn -5.940253367633786e-8 -0.9063075278172045 0.422618817638145
vn 0 0 0
vn 0 0 0
usemtl m_9c555f97-de9f-242a-9686-4d72f95a58ba
f 17/49/13 19/50/13 18/51/13 20/52/13
f 21/53/14 22/54/14 23/55/14 24/56/14
f 21/57/15 17/58/15 18/59/15 22/60/15
f 20/61/16 19/62/16 23/63/16 24/64/16
f 17/65/17 21/66/17 19/67/17 23/68/17
f 18/69/18 20/70/18 22/71/18 24/72/18