# Made in Blockbench 5.1.6
mtllib door_close.mtl

o cube
v 0.5 1.5 -0.375
v 0.5 1.5 -0.5
v 0.5 1.375 -0.375
v 0.5 1.375 -0.5
v -0.5 1.5 -0.5
v -0.5 1.5 -0.375
v -0.5 1.375 -0.5
v -0.5 1.375 -0.375
vt 0.453125 0.84375
vt 0.703125 0.84375
vt 0.703125 0.8125
vt 0.453125 0.8125
vt 0.328125 0.59375
vt 0.359375 0.59375
vt 0.359375 0.5625
vt 0.328125 0.5625
vt 0.453125 0.796875
vt 0.703125 0.796875
vt 0.703125 0.765625
vt 0.453125 0.765625
vt 0.421875 0.40625
vt 0.453125 0.40625
vt 0.453125 0.375
vt 0.421875 0.375
vt 0.703125 0.71875
vt 0.453125 0.71875
vt 0.453125 0.75
vt 0.703125 0.75
vt 0.703125 0.703125
vt 0.453125 0.703125
vt 0.453125 0.671875
vt 0.703125 0.671875
vn 0 0 -1
vn 1 0 0
vn 0 0 1
vn -1 0 0
vn 0 1 0
vn 0 -1 0
usemtl m_b13b6a9f-4100-7683-0715-670d5ccb73ae
f 4/4/1 7/3/1 5/2/1 2/1/1
f 3/8/2 4/7/2 2/6/2 1/5/2
f 8/12/3 3/11/3 1/10/3 6/9/3
f 7/16/4 8/15/4 6/14/4 5/13/4
f 6/20/5 1/19/5 2/18/5 5/17/5
f 7/24/6 4/23/6 3/22/6 8/21/6
o cube
v 0.5 -0.375 -0.375
v 0.5 -0.375 -0.5
v 0.5 -0.5 -0.375
v 0.5 -0.5 -0.5
v -0.5 -0.375 -0.5
v -0.5 -0.375 -0.375
v -0.5 -0.5 -0.5
v -0.5 -0.5 -0.375
vt 0.328125 0.546875
vt 0.578125 0.546875
vt 0.578125 0.515625
vt 0.328125 0.515625
vt 0.59375 0.5625
vt 0.625 0.5625
vt 0.625 0.53125
vt 0.59375 0.53125
vt 0.453125 0.65625
vt 0.703125 0.65625
vt 0.703125 0.625
vt 0.453125 0.625
vt 0.46875 0.40625
vt 0.5 0.40625
vt 0.5 0.375
vt 0.46875 0.375
vt 0.703125 0.578125
vt 0.453125 0.578125
vt 0.453125 0.609375
vt 0.703125 0.609375
vt 0.578125 0.5
vt 0.328125 0.5
vt 0.328125 0.46875
vt 0.578125 0.46875
vn 0 0 -1
vn 1 0 0
vn 0 0 1
vn -1 0 0
vn 0 1 0
vn 0 -1 0
usemtl m_b13b6a9f-4100-7683-0715-670d5ccb73ae
f 12/28/7 15/27/7 13/26/7 10/25/7
f 11/32/8 12/31/8 10/30/8 9/29/8
f 16/36/9 11/35/9 9/34/9 14/33/9
f 15/40/10 16/39/10 14/38/10 13/37/10
f 14/44/11 9/43/11 10/42/11 13/41/11
f 15/48/12 12/47/12 11/46/12 16/45/12
o cube
v -0.375 1.375 -0.375
v -0.375 1.375 -0.5
v -0.375 -0.375 -0.375
v -0.375 -0.375 -0.5
v -0.5 1.375 -0.5
v -0.5 1.375 -0.375
v -0.5 -0.375 -0.5
v -0.5 -0.375 -0.375
vt 0 0.59375
vt 0.03125 0.59375
vt 0.03125 0.15625
vt 0 0.15625
vt 0.40625 1
vt 0.4375 1
vt 0.4375 0.5625
vt 0.40625 0.5625
vt 0.046875 0.59375
vt 0.078125 0.59375
vt 0.078125 0.15625
vt 0.046875 0.15625
vt 0.09375 0.59375
vt 0.125 0.59375
vt 0.125 0.15625
vt 0.09375 0.15625
vt 0.625 0.484375
vt 0.59375 0.484375
vt 0.59375 0.515625
vt 0.625 0.515625
vt 0.546875 0.40625
vt 0.515625 0.40625
vt 0.515625 0.375
vt 0.546875 0.375
vn 0 0 -1
vn 1 0 0
vn 0 0 1
vn -1 0 0
vn 0 1 0
vn 0 -1 0
usemtl m_b13b6a9f-4100-7683-0715-670d5ccb73ae
f 20/52/13 23/51/13 21/50/13 18/49/13
f 19/56/14 20/55/14 18/54/14 17/53/14
f 24/60/15 19/59/15 17/58/15 22/57/15
f 23/64/16 24/63/16 22/62/16 21/61/16
f 22/68/17 17/67/17 18/66/17 21/65/17
f 23/72/18 20/71/18 19/70/18 24/69/18
o cube
v 0.5 1.375 -0.375
v 0.5 1.375 -0.5
v 0.5 -0.375 -0.375
v 0.5 -0.375 -0.5
v 0.375 1.375 -0.5
v 0.375 1.375 -0.375
v 0.375 -0.375 -0.5
v 0.375 -0.375 -0.375
vt 0.140625 0.59375
vt 0.171875 0.59375
vt 0.171875 0.15625
vt 0.140625 0.15625
vt 0.1875 0.59375
vt 0.21875 0.59375
vt 0.21875 0.15625
vt 0.1875 0.15625
vt 0.234375 0.59375
vt 0.265625 0.59375
vt 0.265625 0.15625
vt 0.234375 0.15625
vt 0.28125 0.59375
vt 0.3125 0.59375
vt 0.3125 0.15625
vt 0.28125 0.15625
vt 0.59375 0.375
vt 0.5625 0.375
vt 0.5625 0.40625
vt 0.59375 0.40625
vt 0.640625 0.40625
vt 0.609375 0.40625
vt 0.609375 0.375
vt 0.640625 0.375
vn 0 0 -1
vn 1 0 0
vn 0 0 1
vn -1 0 0
vn 0 1 0
vn 0 -1 0
usemtl m_b13b6a9f-4100-7683-0715-670d5ccb73ae
f 28/76/19 31/75/19 29/74/19 26/73/19
f 27/80/20 28/79/20 26/78/20 25/77/20
f 32/84/21 27/83/21 25/82/21 30/81/21
f 31/88/22 32/87/22 30/86/22 29/85/22
f 30/92/23 25/91/23 26/90/23 29/89/23
f 31/96/24 28/95/24 27/94/24 32/93/24
o cube
v 0.375 0.625 -0.375
v 0.375 0.625 -0.5
v 0.375 0.375 -0.375
v 0.375 0.375 -0.5
v -0.375 0.625 -0.5
v -0.375 0.625 -0.375
v -0.375 0.375 -0.5
v -0.375 0.375 -0.375
vt 0.453125 1
vt 0.640625 1
vt 0.640625 0.9375
vt 0.453125 0.9375
vt 0.328125 0.40625
vt 0.359375 0.40625
vt 0.359375 0.34375
vt 0.328125 0.34375
vt 0.453125 0.921875
vt 0.640625 0.921875
vt 0.640625 0.859375
vt 0.453125 0.859375
vt 0.375 0.40625
vt 0.40625 0.40625
vt 0.40625 0.34375
vt 0.375 0.34375
vt 0.515625 0.421875
vt 0.328125 0.421875
vt 0.328125 0.453125
vt 0.515625 0.453125
vt 0.71875 0.453125
vt 0.53125 0.453125
vt 0.53125 0.421875
vt 0.71875 0.421875
vn 0 0 -1
vn 1 0 0
vn 0 0 1
vn -1 0 0
vn 0 1 0
vn 0 -1 0
usemtl m_b13b6a9f-4100-7683-0715-670d5ccb73ae
f 36/100/25 39/99/25 37/98/25 34/97/25
f 35/104/26 36/103/26 34/102/26 33/101/26
f 40/108/27 35/107/27 33/106/27 38/105/27
f 39/112/28 40/111/28 38/110/28 37/109/28
f 38/116/29 33/115/29 34/114/29 37/113/29
f 39/120/30 36/119/30 35/118/30 40/117/30
o mesh
v 0.37500000000000006 0.375 -0.4375
v 0.37500000000000006 0.375 -0.4375
v 0.37500000000000006 -0.375 -0.4375
v 0.37500000000000006 -0.375 -0.4375
v -0.37500000000000006 0.375 -0.4375
v -0.37500000000000006 0.375 -0.4375
v -0.37500000000000006 -0.375 -0.4375
v -0.37500000000000006 -0.375 -0.4375
vt 0 1
vt 0 1
vt 0 1
vt 0 1
vt 0 1
vt 0 1
vt 0 1
vt 0 1
vt 0.1875 1
vt 0.1875 1
vt 0 1
vt 0 1
vt 0.1875 1
vt 0 1
vt 0.1875 1
vt 0 1
vt 0.1875 0.8125
vt 0.1875 1
vt 0 1
vt 0 0.8125
vt 0.1875 0.796875
vt 0 0.796875
vt 0 0.609375
vt 0.1875 0.609375
vn 0 0 0
vn 0 0 0
vn 0 0 0
vn 0 0 0
vn 0 0 1
vn 0 0 -1
usemtl m_b13b6a9f-4100-7683-0715-670d5ccb73ae
f 41/121/31 43/122/31 42/123/31 44/124/31
f 45/125/32 46/126/32 47/127/32 48/128/32
f 41/129/33 42/130/33 45/131/33 46/132/33
f 43/133/34 47/134/34 44/135/34 48/136/34
f 43/137/35 41/138/35 45/139/35 47/140/35
f 46/141/36 42/142/36 44/143/36 48/144/36
o mesh
v 0.37500000000000006 1.375 -0.4375
v 0.37500000000000006 1.375 -0.4375
v 0.37500000000000006 0.625 -0.4375
v 0.37500000000000006 0.625 -0.4375
v -0.37500000000000006 1.375 -0.4375
v -0.37500000000000006 1.375 -0.4375
v -0.37500000000000006 0.625 -0.4375
v -0.37500000000000006 0.625 -0.4375
vt 0 1
vt 0 1
vt 0 1
vt 0 1
vt 0 1
vt 0 1
vt 0 1
vt 0 1
vt 0.1875 1
vt 0.1875 1
vt 0 1
vt 0 1
vt 0.1875 1
vt 0 1
vt 0.1875 1
vt 0 1
vt 0.390625 0.8125
vt 0.390625 1
vt 0.203125 1
vt 0.203125 0.8125
vt 0.390625 0.796875
vt 0.203125 0.796875
vt 0.203125 0.609375
vt 0.390625 0.609375
vn 0 0 0
vn 0 0 0
vn 0 0 0
vn 0 0 0
vn 0 0 1
vn 0 0 -1
usemtl m_b13b6a9f-4100-7683-0715-670d5ccb73ae
f 49/145/37 51/146/37 50/147/37 52/148/37
f 53/149/38 54/150/38 55/151/38 56/152/38
f 49/153/39 50/154/39 53/155/39 54/156/39
f 51/157/40 55/158/40 52/159/40 56/160/40
f 51/161/41 49/162/41 53/163/41 55/164/41
f 54/165/42 50/166/42 52/167/42 56/168/42